Coordinates
version=1
nRows=14
nColumns=36
inDegrees=yes

Units are S.I. units (second, meters, Newtons, ...)
If the header above contains a line with 'inDegrees', this indicates whether rotational values are in degrees (yes) or radians (no).

endheader
time	pelvis_tilt	pelvis_list	pelvis_rotation	pelvis_tx	pelvis_ty	pelvis_tz	hip_flexion_r	hip_adduction_r	hip_rotation_r	knee_angle_r	knee_angle_r_beta	ankle_angle_r	subtalar_angle_r	mtp_angle_r	hip_flexion_l	hip_adduction_l	hip_rotation_l	knee_angle_l	knee_angle_l_beta	ankle_angle_l	subtalar_angle_l	mtp_angle_l	lumbar_extension	lumbar_bending	lumbar_rotation	arm_flex_r	arm_add_r	arm_rot_r	elbow_flex_r	pro_sup_r	arm_flex_l	arm_add_l	arm_rot_l	elbow_flex_l	pro_sup_l
      0.96666670	     -2.86839759	     -0.11807398	      0.31390466	      0.07084244	      0.92050784	     -0.04778686	     35.95002922	     -7.62323751	     -0.81514279	     44.19220964	      0.77129956	      5.41556350	     -2.61897610	     -7.49611288	     37.80405095	     -5.62949136	      3.00532355	     49.54240568	      0.86467810	      5.31153201	     -5.52190730	     -7.49611288	    -22.79367023	     -1.58926378	     -2.06144492	      4.74866813	    -38.05208986	     10.45266439	     74.35539536	     76.47155126	      4.82256811	    -24.35854882	     -2.74322583	     65.54194189	     67.16308590
      0.98333330	     -1.41254275	     -0.56734665	      0.51155965	      0.08317168	      0.88706992	     -0.06639701	     39.98912270	     -8.26515595	     -0.73779411	     57.45722716	      1.00281779	     14.40364744	     -1.83349377	     -7.49791106	     41.87275754	     -5.37670335	      4.07593589	     62.81526339	      1.09633317	     14.96412816	     -5.23906312	     -7.49791106	    -25.53139984	     -0.88514948	     -2.40409061	      4.52257088	    -35.53690055	     11.62299749	     67.65582778	     85.62334199	      5.06394827	    -22.01098933	     -3.98169494	     59.84057317	     71.59025388
      1.00000000	     -0.04319976	     -0.48297342	      0.69108960	      0.08753653	      0.85920879	     -0.07590998	     43.29453257	     -9.34962820	      0.44402646	     68.02244135	      1.18721557	     22.42270022	      0.39228232	     -7.49781730	     45.06467613	     -4.60654490	      4.52559161	     73.33053934	      1.27985935	     22.71957555	     -4.46072436	     -7.49781730	    -29.42314481	     -0.51723316	     -2.94050935	      5.28416999	    -33.17221435	     13.35134521	     60.48030974	     86.04664925	      6.81846051	    -19.74441102	     -3.38645137	     53.46172316	     71.57913583
      1.01666670	      1.01221984	     -0.90833201	      0.46477004	      0.06319339	      0.84426018	     -0.05051466	     46.51723565	     -7.87794907	      1.27621452	     75.01886484	      1.30932619	     26.35088717	      0.10251997	     -7.49776448	     47.91365807	     -6.00363466	      4.95956646	     79.65456066	      1.39023435	     25.93895234	     -3.36777481	     -7.49776448	    -35.57392548	     -0.84633802	     -2.98700580	      9.38674497	    -29.44078107	     15.76434500	     53.38812973	     86.23235206	     11.48328384	    -19.58000898	     -1.55257766	     48.79581606	     71.27196999
      1.03333330	      2.09568006	     -1.37853249	     -0.11132826	      0.06414238	      0.82271377	     -0.04307164	     49.19148275	     -6.76232475	      1.26021088	     80.74353125	      1.40924047	     29.04311842	      0.89340322	     -7.49752419	     50.09423091	     -7.35179251	      6.04197288	     84.64428260	      1.47732142	     28.03364600	     -2.22886207	     -7.49752419	    -42.17394478	     -1.41270330	     -2.21576691	     13.96016795	    -25.67601371	     16.11267341	     48.06899745	     87.76218061	     16.37909067	    -19.42040574	     -0.19265096	     46.79362030	     71.74175003
      1.05000000	      2.30256529	     -1.76372892	     -0.77324281	      0.06234552	      0.79347217	     -0.03956792	     53.01041444	     -5.34099089	      1.53611522	     86.39120450	      1.50781096	     30.61471259	      0.25752021	     -7.49750138	     53.22825997	     -8.75419324	      7.16308721	     89.23845934	      1.55750493	     29.28694315	     -2.28428485	     -7.49750138	    -46.59996017	     -2.30109728	     -1.68485831	     18.46565783	    -23.18401904	     19.24663777	     44.04899819	     87.23734929	     21.19941805	    -19.51752084	      3.22221693	     47.15910944	     70.49199426
      1.06666670	      1.98186191	     -2.11240127	     -0.83070066	      0.05836107	      0.77413542	     -0.04389075	     56.26392963	     -4.51664311	      1.66451602	     90.26051374	      1.57534315	     31.35987192	     -0.25402703	     -7.49797020	     56.54284118	     -9.27408979	      8.20508364	     92.74461016	      1.61869881	     29.87899224	     -1.72999263	     -7.49797020	    -50.27123043	     -2.78238017	     -1.30474578	     23.10015218	    -21.71579166	     21.63747788	     40.94929823	     82.11391199	     26.70759051	    -19.28246178	      6.66920483	     47.66285879	     63.54626968
      1.08333330	      0.96880056	     -2.31673700	     -0.52645335	      0.07493508	      0.74811967	     -0.05498835	     59.32701154	     -4.89926656	      2.27078789	     94.08875950	      1.64215864	     32.91632311	      0.32982155	     -7.49788896	     59.91741280	     -9.10233119	      8.92348212	     96.35529403	      1.68171713	     31.30274810	     -0.83603301	     -7.49788896	    -51.71172721	     -2.21008067	     -1.32800563	     25.58802961	    -20.99985863	     21.35759812	     38.98622086	     82.82977721	     29.89603271	    -18.66418576	     10.27318604	     49.78454946	     64.03437045
      1.10000000	      0.31608429	     -2.24408240	     -0.22308350	      0.06983112	      0.73920341	     -0.05838953	     60.95971642	     -5.55407037	      2.79998797	     95.80439447	      1.67210212	     33.81049916	      0.28789000	     -7.49797493	     62.10953253	     -8.45188163	      8.96100957	     98.82895749	      1.72489070	     31.59256446	     -0.99688351	     -7.49797493	    -53.60817757	     -2.04944361	     -1.45529559	     29.49646373	    -20.70853815	     19.07585892	     39.14364941	     82.78353410	     34.98243954	    -18.05166520	     13.88842654	     51.31278498	     64.21454274
      1.11666670	     -0.53357961	     -2.19688157	      0.26867772	      0.08627957	      0.73519816	     -0.06895526	     61.33823456	     -6.67802891	      3.29275650	     96.67894452	      1.68736590	     34.81688425	      0.75569212	     -7.49798877	     63.09317959	     -7.61508197	      8.77209034	    100.23276717	      1.74939181	     32.33114825	     -1.09804354	     -7.49798877	    -54.47518811	     -1.25849551	     -1.01056587	     31.75567740	    -21.11613248	     18.19297084	     38.67886272	     82.75005265	     37.80474341	    -16.29389507	     13.76008555	     52.99227447	     64.17286163
      1.13333330	     -1.31140666	     -2.19164828	      0.32809251	      0.08660070	      0.72578027	     -0.07783772	     62.02516888	     -7.89948033	      3.68734664	     97.30326527	      1.69826235	     35.12591306	      1.73532255	     -7.49820117	     63.93292449	     -6.73649841	      8.33352585	    101.51200645	      1.77171874	     33.08041014	     -1.77702094	     -7.49820117	    -55.16662395	     -0.58628972	     -0.24762463	     34.61941271	    -22.31278519	     17.29814332	     39.86695830	     81.54154213	     40.05353758	    -14.82331281	     13.82815938	     55.43165337	     63.96752525
      1.15000000	     -1.58067118	     -2.40774482	      0.04281136	      0.08727488	      0.71714442	     -0.07757615	     62.69418036	     -8.55770277	      3.97018258	     98.26559164	      1.71505812	     35.86241673	      3.05467853	     -7.49824108	     64.43824844	     -6.46843324	      8.34427707	    102.86308447	      1.79529950	     33.86910965	     -1.98032896	     -7.49824108	    -55.91494721	      0.01118567	      0.74020498	     37.50996075	    -24.43556975	     15.92081121	     43.43774692	     82.09396703	     42.83442176	    -14.13816195	     14.29997016	     61.44110830	     64.30092527
      1.16666670	     -1.96009036	     -2.79104591	     -0.07072564	      0.09350634	      0.71815747	     -0.08248804	     62.56257207	     -8.89334226	      3.76771427	     98.21536357	      1.71418147	     35.84182192	      2.32919240	     -7.49826214	     64.92245675	     -6.02400254	      8.64647745	    103.76391490	      1.81102196	     33.87834514	     -2.66687825	     -7.49826214	    -56.29053209	      0.63064793	      1.24788340	     40.99263190	    -25.32585318	     15.28126055	     45.83579076	     82.37315823	     46.64434938	    -12.87858621	     14.32217477	     64.43503317	     64.41300736
      1.18333330	     -2.22376895	     -2.75934048	     -0.20278887	      0.09591657	      0.71619882	     -0.08210891	     62.75877532	     -8.92907465	      4.07974044	     98.37150303	      1.71690662	     36.14018890	      2.47437501	     -7.49846198	     64.92710576	     -5.91803798	      8.59221801	    104.10796261	      1.81702673	     34.41790526	     -2.94931311	     -7.49846198	    -56.39437462	      0.53890616	      1.30580638	     44.40274790	    -27.27435683	     15.77249655	     52.18448486	     81.65638437	     50.65791387	    -12.38297636	     14.58085240	     68.72613881	     64.23050381
